<svg xmlns="http://www.w3.org/2000/svg" xmlns:xlink="http://www.w3.org/1999/xlink" xml:space="preserve" version="1.1"
  style="shape-rendering:geometricPrecision;text-rendering:geometricPrecision;image-rendering:optimizeQuality;"
  viewBox="0 0 847 1058.75" x="0px" y="0px" fill-rule="evenodd" clip-rule="evenodd">
  <defs>
    <style type="text/css">
      .fil0 {
        fill: #fff
      }
    </style>
  </defs>
  <g>
    <path class="fil0"
      d="M423 22c222,0 402,180 402,401 0,222 -180,402 -402,402 -221,0 -401,-180 -401,-402 0,-221 180,-401 401,-401zm-107 515l-129 -129c-1,-1 -3,-1 -4,0l-40 40c-1,1 -1,3 0,4l181 181c1,1 3,1 4,0l376 -375c1,-1 1,-3 0,-4l-40 -40c-2,-1 -3,-1 -4,0l-324 323c-5,6 -14,6 -20,0z" />
  </g></svg>